# xmcd
#
# Track frame offsets: 
#        150
#        14860
#        30595
#        53483
#        69599
#        83226
#        94991
#        115193
#        128489
#        141863
#
# Disc length: 2149 seconds
#
# Revision: 0
# Processed by: cddbd v1.5PL3 Copyright (c) Steve Scherf et al.
# Submitted via: ExactAudioCopy v0.90b4
#
DISCID=8308630a
DTITLE=Vallejo - Black Sky
DYEAR=2003
DGENRE=Rock
TTITLE0=Come Alive
TTITLE1=Black Sky
TTITLE2=Hard To Be
TTITLE3=Up
TTITLE4=Had Enough
TTITLE5=This Is The Sound
TTITLE6=Surreal
TTITLE7=The Crawl
TTITLE8=Wish It Away
TTITLE9=Silent Rage
EXTD=
EXTT0=
EXTT1=
EXTT2=
EXTT3=
EXTT4=
EXTT5=
EXTT6=
EXTT7=
EXTT8=
EXTT9=
PLAYORDER=
